<svg width="20" height="20" fill="none" xmlns="http://www.w3.org/2000/svg"><g clip-path="url(#clip0_2_98)" fill-rule="evenodd" clip-rule="evenodd" fill="#61594D" fill-opacity=".6"><path d="M10 2a6.5 6.5 0 00-6.5 6.5c0 2.515 1.64 4.98 3.476 6.916A24.358 24.358 0 0010 18.103a24.35 24.35 0 003.024-2.686C14.859 13.478 16.5 11.014 16.5 8.5A6.5 6.5 0 0010 2zm0 17.333l-.555.832-.003-.002-.006-.004-.02-.013a9.507 9.507 0 01-.324-.228 26.35 26.35 0 01-3.568-3.126C3.609 14.77 1.5 11.819 1.5 8.5a8.5 8.5 0 1117 0c0 3.319-2.11 6.27-4.024 8.292a26.353 26.353 0 01-3.568 3.126 15.707 15.707 0 01-.325.228l-.02.013-.005.004-.002.002-.556-.832zm0 0l.555.832a1 1 0 01-1.11 0l.555-.832z"/><path d="M10 6.833a1.5 1.5 0 100 3 1.5 1.5 0 000-3zm-3.5 1.5a3.5 3.5 0 117 0 3.5 3.5 0 01-7 0z"/></g><defs><clipPath id="clip0_2_98"><path fill="#fff" d="M0 0h20v20H0z"/></clipPath></defs></svg>