<svg width="20" height="20" viewBox="0 0 20 20" fill="none" xmlns="http://www.w3.org/2000/svg">
<g clip-path="url(#clip0_2_108)">
<path fill-rule="evenodd" clip-rule="evenodd" d="M10 -0.166748C10.5523 -0.166748 11 0.280967 11 0.833252V19.1666C11 19.7189 10.5523 20.1666 10 20.1666C9.44772 20.1666 9 19.7189 9 19.1666V0.833252C9 0.280967 9.44772 -0.166748 10 -0.166748Z" fill="#61594D" fill-opacity="0.6"/>
<path fill-rule="evenodd" clip-rule="evenodd" d="M5.14717 4.31391C5.88168 3.5794 6.8779 3.16675 7.91667 3.16675H14.1667C14.719 3.16675 15.1667 3.61446 15.1667 4.16675C15.1667 4.71903 14.719 5.16675 14.1667 5.16675H7.91667C7.40834 5.16675 6.92082 5.36868 6.56138 5.72813C6.20193 6.08757 6 6.57508 6 7.08342C6 7.59175 6.20193 8.07926 6.56138 8.4387C6.92082 8.79815 7.40834 9.00008 7.91667 9.00008H12.0833C13.1221 9.00008 14.1183 9.41273 14.8528 10.1472C15.5874 10.8818 16 11.878 16 12.9167C16 13.9555 15.5874 14.9517 14.8528 15.6863C14.1183 16.4208 13.1221 16.8334 12.0833 16.8334H5C4.44772 16.8334 4 16.3857 4 15.8334C4 15.2811 4.44772 14.8334 5 14.8334H12.0833C12.5917 14.8334 13.0792 14.6315 13.4386 14.272C13.7981 13.9126 14 13.4251 14 12.9167C14 12.4084 13.7981 11.9209 13.4386 11.5615C13.0792 11.202 12.5917 11.0001 12.0833 11.0001H7.91667C6.8779 11.0001 5.88168 10.5874 5.14717 9.85292C4.41265 9.1184 4 8.12218 4 7.08342C4 6.04465 4.41265 5.04843 5.14717 4.31391Z" fill="#61594D" fill-opacity="0.6"/>
</g>
<defs>
<clipPath id="clip0_2_108">
<rect width="20" height="20" fill="white"/>
</clipPath>
</defs>
</svg>
