<svg width="20" height="20" fill="none" xmlns="http://www.w3.org/2000/svg"><g clip-path="url(#clip0_2_108)" fill-rule="evenodd" clip-rule="evenodd" fill="#61594D" fill-opacity=".6"><path d="M10-.167a1 1 0 011 1v18.334a1 1 0 11-2 0V.833a1 1 0 011-1z"/><path d="M5.147 4.314a3.917 3.917 0 012.77-1.147h6.25a1 1 0 110 2h-6.25a1.917 1.917 0 100 3.833h4.166a3.917 3.917 0 110 7.833H5a1 1 0 110-2h7.083a1.916 1.916 0 100-3.833H7.917a3.917 3.917 0 01-2.77-6.686z"/></g><defs><clipPath id="clip0_2_108"><path fill="#fff" d="M0 0h20v20H0z"/></clipPath></defs></svg>