<svg width="20" height="20" fill="none" xmlns="http://www.w3.org/2000/svg"><path fill-rule="evenodd" clip-rule="evenodd" d="M9.386.877a1 1 0 011.228 0l7.5 5.834a1 1 0 01.386.79v9.166a2.667 2.667 0 01-2.667 2.666H4.167A2.667 2.667 0 011.5 16.667V7.5a1 1 0 01.386-.79l7.5-5.833zM3.5 7.99v8.678a.667.667 0 00.667.666h11.666a.667.667 0 00.667-.666V7.989L10 2.934 3.5 7.989z" fill="#61594D" fill-opacity=".6"/><path fill-rule="evenodd" clip-rule="evenodd" d="M6.5 10a1 1 0 011-1h5a1 1 0 011 1v8.333a1 1 0 11-2 0V11h-3v7.333a1 1 0 11-2 0V10z" fill="#61594D" fill-opacity=".6"/></svg>