<svg width="20" height="20" viewBox="0 0 20 20" fill="none" xmlns="http://www.w3.org/2000/svg">
<g clip-path="url(#clip0_2_98)">
<path fill-rule="evenodd" clip-rule="evenodd" d="M10 2C8.27609 2 6.62279 2.68482 5.40381 3.90381C4.18482 5.12279 3.5 6.77609 3.5 8.5C3.5 11.0147 5.14074 13.4792 6.97595 15.4164C7.87311 16.3634 8.77367 17.1393 9.45105 17.6787C9.65778 17.8433 9.84297 17.9853 10 18.1028C10.157 17.9853 10.3422 17.8433 10.5489 17.6787C11.2263 17.1393 12.1269 16.3634 13.024 15.4164C14.8593 13.4792 16.5 11.0147 16.5 8.5C16.5 6.77609 15.8152 5.12279 14.5962 3.90381C13.3772 2.68482 11.7239 2 10 2ZM10 19.3333C9.4453 20.1654 9.44505 20.1652 9.44478 20.165L9.44217 20.1633L9.43632 20.1594L9.41662 20.146C9.39999 20.1347 9.37643 20.1186 9.3464 20.0978C9.28636 20.0563 9.20041 19.9959 9.09224 19.9178C8.87601 19.7616 8.57042 19.534 8.2052 19.2432C7.47633 18.6628 6.50189 17.8241 5.52405 16.7919C3.60926 14.7707 1.5 11.8186 1.5 8.5C1.5 6.24566 2.39553 4.08365 3.98959 2.48959C5.58365 0.895533 7.74566 0 10 0C12.2543 0 14.4163 0.895533 16.0104 2.48959C17.6045 4.08365 18.5 6.24566 18.5 8.5C18.5 11.8186 16.3907 14.7707 14.476 16.7919C13.4981 17.8241 12.5237 18.6628 11.7948 19.2432C11.4296 19.534 11.124 19.7616 10.9078 19.9178C10.7996 19.9959 10.7136 20.0563 10.6536 20.0978C10.6236 20.1186 10.6 20.1347 10.5834 20.146L10.5637 20.1594L10.5578 20.1633L10.5559 20.1646C10.5556 20.1648 10.5547 20.1654 10 19.3333ZM10 19.3333L10.5547 20.1654C10.2188 20.3893 9.78067 20.389 9.44478 20.165L10 19.3333Z" fill="#61594D" fill-opacity="0.6"/>
<path fill-rule="evenodd" clip-rule="evenodd" d="M10 6.83325C9.17157 6.83325 8.5 7.50482 8.5 8.33325C8.5 9.16168 9.17157 9.83325 10 9.83325C10.8284 9.83325 11.5 9.16168 11.5 8.33325C11.5 7.50482 10.8284 6.83325 10 6.83325ZM6.5 8.33325C6.5 6.40026 8.067 4.83325 10 4.83325C11.933 4.83325 13.5 6.40026 13.5 8.33325C13.5 10.2662 11.933 11.8333 10 11.8333C8.067 11.8333 6.5 10.2662 6.5 8.33325Z" fill="#61594D" fill-opacity="0.6"/>
</g>
<defs>
<clipPath id="clip0_2_98">
<rect width="20" height="20" fill="white"/>
</clipPath>
</defs>
</svg>
