<svg width="22" height="22" viewBox="0 0 22 22" fill="none" xmlns="http://www.w3.org/2000/svg">
<path d="M20.1048 4.95489L12.2823 0.709887C11.8887 0.495893 11.4478 0.383789 10.9998 0.383789C10.5518 0.383789 10.1109 0.495893 9.71727 0.709887L1.89477 4.95489C1.4713 5.18686 1.11823 5.52874 0.87273 5.94451C0.627229 6.36027 0.498385 6.83455 0.499767 7.31739V18.9274C0.499767 19.6395 0.78265 20.3224 1.28619 20.826C1.78972 21.3295 2.47266 21.6124 3.18477 21.6124H18.8223C19.5331 21.6104 20.2141 21.3266 20.716 20.8233C21.2179 20.32 21.4998 19.6382 21.4998 18.9274V7.31739C21.5012 6.83455 21.3723 6.36027 21.1268 5.94451C20.8813 5.52874 20.5282 5.18686 20.1048 4.95489ZM15.4173 15.4549C15.2182 16.4804 14.6685 17.4046 13.8625 18.0692C13.0565 18.7337 12.0444 19.0972 10.9998 19.0972C9.95514 19.0972 8.94305 18.7337 8.13706 18.0692C7.33106 17.4046 6.78138 16.4804 6.58227 15.4549C6.56595 15.3474 6.5732 15.2376 6.60352 15.1332C6.63383 15.0288 6.68648 14.9322 6.75782 14.8502C6.82916 14.7682 6.91749 14.7026 7.01668 14.6581C7.11587 14.6136 7.22355 14.5912 7.33227 14.5924C7.51094 14.5898 7.68467 14.6511 7.82217 14.7652C7.95967 14.8793 8.05191 15.0388 8.08227 15.2149C8.22352 15.8891 8.59247 16.4941 9.12716 16.9284C9.66184 17.3627 10.3297 17.5997 11.0185 17.5997C11.7073 17.5997 12.3752 17.3627 12.9099 16.9284C13.4446 16.4941 13.8135 15.8891 13.9548 15.2149C13.9851 15.0388 14.0774 14.8793 14.2149 14.7652C14.3524 14.6511 14.5261 14.5898 14.7048 14.5924C14.8081 14.5968 14.9094 14.6225 15.0024 14.668C15.0953 14.7135 15.1778 14.7777 15.2447 14.8566C15.3116 14.9355 15.3615 15.0273 15.3912 15.1264C15.4209 15.2255 15.4298 15.3297 15.4173 15.4324V15.4549Z" fill="#D6680F"/>
</svg>
